# xmcd
#
# Track frame offsets:
#	150
#	33712
#	55396
#	75785
#	88651
#	113925
#	144001
#	170366
#	212261
#	236287
#
# Disc length: 3888 seconds
# Revision: 2
# Processed by: cddbd v1.5.2PL0 Copyright (c) Steve Scherf et al.
# Submitted via: dBpowerAMP V12.0
#
DISCID=710f2e0a
DTITLE=Pera Joe - Sessionman
DYEAR=2002
DGENRE=Blues
TTITLE0=The World Is Troubled
TTITLE1=Cross Road Theme
TTITLE2=Fixin' To Die
TTITLE3=Key To The Highway
TTITLE4=Help Me
TTITLE5=Down By The Riverside - When The Saints Go Marchin' In
TTITLE6=Summertime
TTITLE7=The Sky Is Crying
TTITLE8=Sleep On Muddy
TTITLE9=Tobacco Road
EXTD=
EXTT0=
EXTT1=
EXTT2=
EXTT3=
EXTT4=
EXTT5=
EXTT6=
EXTT7=
EXTT8=
EXTT9=
PLAYORDER=
